<svg width="275" height="276" viewBox="0 0 275 276" fill="none" xmlns="http://www.w3.org/2000/svg">
  <g clip-path="url(#clip0_3:3)">
    <path d="M137.5 105.662C128.468 105.662 121.387 112.769 121.387 121.834V218.865C121.387 227.93 128.468 235.037 137.5 235.037C146.532 235.037 153.613 227.93 153.613 218.865V121.834C153.613 112.769 146.532 105.662 137.5 105.662ZM255.755 18.4063C253.788 16.8743 251.223 16.3217 248.8 16.9772C244.948 18.678 186.467 26.4092 147.447 84.9972C145.575 87.816 145.653 91.5118 147.636 94.2518C149.611 96.9725 153.077 98.1978 156.354 97.2684L253.033 69.6151C256.495 68.62 258.887 65.4459 258.887 61.8369V24.8023C258.887 22.2988 257.738 19.9383 255.755 18.4063ZM127.364 94.2513C129.347 91.5112 129.426 87.816 127.553 84.9967C88.5312 26.4054 30.0889 18.6941 26.1997 16.9767C23.7451 16.3212 21.1959 16.8743 19.2446 18.4057C17.2622 19.9383 16.1133 22.2988 16.1133 24.8023V61.8364C16.1133 65.4449 18.505 68.6194 21.9667 69.6145L118.646 97.2679C121.926 98.1978 125.39 96.9703 127.364 94.2513Z" fill="url(#paint0_linear_3:3)" />
    <path d="M271.778 50.6767C269.681 49.2218 267.104 48.7361 264.687 49.383L153.021 81.4038H121.979L10.3125 49.383C7.89497 48.7366 5.31846 49.2223 3.22158 50.6767C1.129 52.1327 0 54.558 0 57.146V218.865C0 222.422 2.41753 225.657 5.80078 226.627L118.594 258.97C119.398 259.132 120.043 259.294 120.85 259.294H154.15C154.957 259.294 155.602 259.133 156.406 258.97L269.199 226.627C272.582 225.656 275 222.422 275 218.865V57.146C275 54.558 273.871 52.1327 271.778 50.6767ZM145.557 218.865C145.557 223.392 142.012 226.951 137.5 226.951C132.988 226.951 129.443 223.392 129.443 218.865V121.834C129.443 117.305 132.988 113.748 137.5 113.748C142.012 113.748 145.557 117.305 145.557 121.834V218.865Z" fill="url(#paint1_linear_3:3)" />
  </g>
  <defs>
    <linearGradient id="paint0_linear_3:3" x1="137.5" y1="235.037" x2="137.5" y2="16.7055" gradientUnits="userSpaceOnUse">
      <stop stop-color="#ADDCFF" />
      <stop offset="0.5028" stop-color="#EAF6FF" />
      <stop offset="1" stop-color="#B7E0FF" />
    </linearGradient>
    <linearGradient id="paint1_linear_3:3" x1="137.5" y1="259.294" x2="137.5" y2="49.1021" gradientUnits="userSpaceOnUse">
      <stop stop-color="#5558FF" />
      <stop offset="1" stop-color="#00C0FF" />
    </linearGradient>
    <clipPath id="clip0_3:3">
      <rect width="275" height="276" fill="white" />
    </clipPath>
  </defs>
</svg>
  